<mxfile host="app.diagrams.net" agent="Mozilla/5.0 (Windows NT 10.0; Win64; x64) AppleWebKit/537.36 (KHTML, like Gecko) Chrome/132.0.0.0 Safari/537.36 OPR/117.0.0.0" version="26.2.6">
  <diagram name="Página-1" id="spNTLEuRJLLtz-HFEWW7">
    <mxGraphModel dx="833" dy="453" grid="1" gridSize="10" guides="1" tooltips="1" connect="1" arrows="1" fold="1" page="1" pageScale="1" pageWidth="827" pageHeight="1169" math="0" shadow="0">
      <root>
        <mxCell id="0" />
        <mxCell id="1" parent="0" />
        <mxCell id="OlMLmDneTLEKoJvGeRDO-6" style="edgeStyle=orthogonalEdgeStyle;rounded=0;orthogonalLoop=1;jettySize=auto;html=1;exitX=0.5;exitY=1;exitDx=0;exitDy=0;entryX=0.5;entryY=0;entryDx=0;entryDy=0;" edge="1" parent="1" source="OlMLmDneTLEKoJvGeRDO-1" target="OlMLmDneTLEKoJvGeRDO-3">
          <mxGeometry relative="1" as="geometry" />
        </mxCell>
        <mxCell id="OlMLmDneTLEKoJvGeRDO-1" value="Início" style="rounded=1;whiteSpace=wrap;html=1;fontSize=12;glass=0;strokeWidth=1;shadow=0;" vertex="1" parent="1">
          <mxGeometry x="260" y="170" width="60" height="40" as="geometry" />
        </mxCell>
        <mxCell id="OlMLmDneTLEKoJvGeRDO-8" value="" style="edgeStyle=orthogonalEdgeStyle;rounded=0;orthogonalLoop=1;jettySize=auto;html=1;" edge="1" parent="1" source="OlMLmDneTLEKoJvGeRDO-3" target="OlMLmDneTLEKoJvGeRDO-7">
          <mxGeometry relative="1" as="geometry" />
        </mxCell>
        <mxCell id="OlMLmDneTLEKoJvGeRDO-3" value="&lt;div&gt;&lt;br&gt;&lt;/div&gt;&lt;div&gt;&lt;br&gt;&lt;/div&gt;Ler raio" style="shape=manualInput;whiteSpace=wrap;html=1;" vertex="1" parent="1">
          <mxGeometry x="245" y="240" width="90" height="60" as="geometry" />
        </mxCell>
        <mxCell id="OlMLmDneTLEKoJvGeRDO-10" value="" style="edgeStyle=orthogonalEdgeStyle;rounded=0;orthogonalLoop=1;jettySize=auto;html=1;" edge="1" parent="1" source="OlMLmDneTLEKoJvGeRDO-7" target="OlMLmDneTLEKoJvGeRDO-9">
          <mxGeometry relative="1" as="geometry" />
        </mxCell>
        <mxCell id="OlMLmDneTLEKoJvGeRDO-7" value="&lt;div&gt;&lt;br&gt;&lt;/div&gt;&lt;div&gt;&lt;br&gt;&lt;/div&gt;Ler altura" style="shape=manualInput;whiteSpace=wrap;html=1;" vertex="1" parent="1">
          <mxGeometry x="245" y="380" width="90" height="60" as="geometry" />
        </mxCell>
        <mxCell id="OlMLmDneTLEKoJvGeRDO-12" style="edgeStyle=orthogonalEdgeStyle;rounded=0;orthogonalLoop=1;jettySize=auto;html=1;exitX=0.5;exitY=1;exitDx=0;exitDy=0;" edge="1" parent="1" source="OlMLmDneTLEKoJvGeRDO-9">
          <mxGeometry relative="1" as="geometry">
            <mxPoint x="290" y="630" as="targetPoint" />
          </mxGeometry>
        </mxCell>
        <mxCell id="OlMLmDneTLEKoJvGeRDO-9" value="volume =&amp;nbsp;3,14159 * raio * raio * altura" style="whiteSpace=wrap;html=1;" vertex="1" parent="1">
          <mxGeometry x="230" y="520" width="120" height="60" as="geometry" />
        </mxCell>
        <mxCell id="OlMLmDneTLEKoJvGeRDO-14" style="edgeStyle=orthogonalEdgeStyle;rounded=0;orthogonalLoop=1;jettySize=auto;html=1;exitX=0;exitY=0;exitDx=40;exitDy=40;exitPerimeter=0;" edge="1" parent="1" source="OlMLmDneTLEKoJvGeRDO-11">
          <mxGeometry relative="1" as="geometry">
            <mxPoint x="290" y="730" as="targetPoint" />
          </mxGeometry>
        </mxCell>
        <mxCell id="OlMLmDneTLEKoJvGeRDO-11" value="volume" style="shape=display;whiteSpace=wrap;html=1;" vertex="1" parent="1">
          <mxGeometry x="250" y="640" width="80" height="40" as="geometry" />
        </mxCell>
        <mxCell id="OlMLmDneTLEKoJvGeRDO-13" value="Fim" style="rounded=1;whiteSpace=wrap;html=1;fontSize=12;glass=0;strokeWidth=1;shadow=0;" vertex="1" parent="1">
          <mxGeometry x="260" y="740" width="60" height="40" as="geometry" />
        </mxCell>
      </root>
    </mxGraphModel>
  </diagram>
</mxfile>
